<svg width="249" height="86" viewBox="0 0 249 86" fill="none" xmlns="http://www.w3.org/2000/svg">
<path d="M74.432 34V11.6H78.112V34H74.432ZM88.672 34V11.6H92.352V34H88.672ZM76.96 24.08V20.72H89.472V24.08H76.96ZM99.7413 24.496V21.456H105.405C106.536 21.456 107.411 21.168 108.029 20.592C108.669 19.9947 108.989 19.1733 108.989 18.128C108.989 17.1893 108.68 16.4 108.061 15.76C107.443 15.12 106.568 14.8 105.437 14.8H99.7413V11.6H105.597C107.005 11.6 108.243 11.888 109.309 12.464C110.376 13.0187 111.197 13.7867 111.773 14.768C112.371 15.728 112.669 16.8267 112.669 18.064C112.669 19.3653 112.371 20.496 111.773 21.456C111.197 22.416 110.376 23.1627 109.309 23.696C108.243 24.2293 107.005 24.496 105.597 24.496H99.7413ZM97.2133 34V11.6H100.893V34H97.2133ZM109.501 34L101.661 24.272L105.085 23.024L114.141 34H109.501ZM126.892 34.32C125.292 34.32 123.799 34.0213 122.412 33.424C121.026 32.8267 119.81 32.0053 118.764 30.96C117.719 29.8933 116.898 28.6667 116.3 27.28C115.724 25.872 115.436 24.368 115.436 22.768C115.436 21.168 115.724 19.6747 116.3 18.288C116.898 16.9013 117.708 15.6853 118.732 14.64C119.778 13.5733 120.983 12.752 122.348 12.176C123.735 11.5787 125.228 11.28 126.828 11.28C128.428 11.28 129.911 11.5787 131.276 12.176C132.663 12.752 133.879 13.5733 134.924 14.64C135.97 15.6853 136.78 16.912 137.356 18.32C137.954 19.7067 138.252 21.2 138.252 22.8C138.252 24.4 137.954 25.904 137.356 27.312C136.78 28.6987 135.97 29.9147 134.924 30.96C133.9 32.0053 132.695 32.8267 131.308 33.424C129.943 34.0213 128.471 34.32 126.892 34.32ZM126.828 30.8C128.343 30.8 129.666 30.4587 130.796 29.776C131.948 29.0933 132.844 28.1547 133.484 26.96C134.146 25.744 134.476 24.3467 134.476 22.768C134.476 21.5947 134.284 20.528 133.9 19.568C133.538 18.5867 133.015 17.744 132.332 17.04C131.65 16.3147 130.839 15.76 129.9 15.376C128.983 14.992 127.959 14.8 126.828 14.8C125.335 14.8 124.012 15.1413 122.86 15.824C121.73 16.4853 120.834 17.4133 120.172 18.608C119.532 19.8027 119.212 21.1893 119.212 22.768C119.212 23.9413 119.394 25.0293 119.756 26.032C120.14 27.0133 120.663 27.856 121.324 28.56C122.007 29.264 122.818 29.8187 123.756 30.224C124.695 30.608 125.719 30.8 126.828 30.8ZM141.995 34V11.6H144.555L153.867 26.928H152.203L161.515 11.6H164.075V34H160.395V18.064L161.227 18.288L154.315 29.648H151.755L144.843 18.288L145.675 18.064V34H141.995Z" fill="white"/>
<path d="M79.52 65.72V60.84H85.6C86.3733 60.84 87.08 60.68 87.72 60.36C88.36 60.04 88.8667 59.5733 89.24 58.96C89.6133 58.3467 89.8 57.6 89.8 56.72C89.8 55.8667 89.6133 55.1333 89.24 54.52C88.8667 53.9067 88.36 53.44 87.72 53.12C87.08 52.8 86.3733 52.64 85.6 52.64H79.52V47.76H86.52C88.3067 47.76 89.92 48.12 91.36 48.84C92.8 49.56 93.9333 50.6 94.76 51.96C95.6133 53.2933 96.04 54.88 96.04 56.72C96.04 58.56 95.6133 60.16 94.76 61.52C93.9333 62.8533 92.8 63.8933 91.36 64.64C89.92 65.36 88.3067 65.72 86.52 65.72H79.52ZM74.72 76V47.76H81V76H74.72ZM95.4906 76L106.691 47.76H112.371L123.451 76H116.811L108.331 52.56H110.611L102.011 76H95.4906ZM101.851 70.88V65.76H117.251V70.88H101.851ZM131.525 65.48L120.645 47.76H127.925L136.285 62.08H131.605L139.965 47.76H147.085L136.125 65.48H131.525ZM130.765 76V62.6H137.045V76H130.765ZM154.129 64.36V59.72H160.089C161.343 59.72 162.303 59.4 162.969 58.76C163.663 58.12 164.009 57.2533 164.009 56.16C164.009 55.1467 163.676 54.3067 163.009 53.64C162.343 52.9733 161.383 52.64 160.129 52.64H154.129V47.76H160.849C162.716 47.76 164.356 48.12 165.769 48.84C167.183 49.5333 168.289 50.5067 169.089 51.76C169.889 53.0133 170.289 54.4533 170.289 56.08C170.289 57.7333 169.889 59.1867 169.089 60.44C168.289 61.6667 167.169 62.6267 165.729 63.32C164.289 64.0133 162.596 64.36 160.649 64.36H154.129ZM149.329 76V47.76H155.609V76H149.329ZM164.689 76L155.889 63.84L161.649 62.28L172.129 76H164.689ZM188.2 76.48C186.067 76.48 184.093 76.1067 182.28 75.36C180.493 74.6133 178.92 73.5733 177.56 72.24C176.2 70.9067 175.147 69.36 174.4 67.6C173.653 65.8133 173.28 63.8933 173.28 61.84C173.28 59.76 173.653 57.84 174.4 56.08C175.147 54.32 176.187 52.7867 177.52 51.48C178.853 50.1467 180.413 49.12 182.2 48.4C184.013 47.6533 185.987 47.28 188.12 47.28C190.227 47.28 192.173 47.6533 193.96 48.4C195.773 49.12 197.347 50.1467 198.68 51.48C200.04 52.7867 201.093 54.3333 201.84 56.12C202.587 57.88 202.96 59.8 202.96 61.88C202.96 63.9333 202.587 65.8533 201.84 67.64C201.093 69.4 200.053 70.9467 198.72 72.28C197.387 73.5867 195.813 74.6133 194 75.36C192.213 76.1067 190.28 76.48 188.2 76.48ZM188.12 70.76C189.8 70.76 191.267 70.3867 192.52 69.64C193.8 68.8933 194.787 67.8533 195.48 66.52C196.173 65.16 196.52 63.6 196.52 61.84C196.52 60.5067 196.32 59.3067 195.92 58.24C195.52 57.1467 194.947 56.2133 194.2 55.44C193.453 54.64 192.56 54.04 191.52 53.64C190.507 53.2133 189.373 53 188.12 53C186.44 53 184.96 53.3733 183.68 54.12C182.427 54.84 181.453 55.8667 180.76 57.2C180.067 58.5067 179.72 60.0533 179.72 61.84C179.72 63.1733 179.92 64.3867 180.32 65.48C180.72 66.5733 181.28 67.52 182 68.32C182.747 69.0933 183.64 69.6933 184.68 70.12C185.72 70.5467 186.867 70.76 188.12 70.76ZM206.947 76V47.76H213.227V76H206.947ZM211.787 76V70.48H225.747V76H211.787ZM229.368 76V47.76H235.648V76H229.368ZM234.208 76V70.48H248.168V76H234.208Z" fill="white"/>
<path d="M44.0664 64.2187V73.6599C44.0664 75.0749 45.2135 76.2219 46.6284 76.2219C48.0434 76.2219 49.1904 75.0749 49.1904 73.6599V68.9884C49.1904 65.451 52.058 62.5834 55.5954 62.5834H58.8181C60.5756 62.5834 62.0004 61.1586 62.0004 59.4011C62.0004 57.6435 60.5756 56.2188 58.8181 56.2188H52.0664C47.6481 56.2188 44.0664 59.8005 44.0664 64.2187Z" fill="#52C58B" stroke="#52C58B"/>
<path d="M35.4798 32.434L4 14.6953V55.8339L35.4798 76.4031V32.434Z" fill="#52C58B"/>
<g filter="url(#filter0_d_4270_629)">
<path d="M4 3H37.0896C50.8468 3 61.9992 14.1524 61.9992 27.9096V27.9096C61.9992 41.6668 50.8468 52.8192 37.0896 52.8192H4V3Z" fill="#77FFBB" fill-opacity="0.66" shape-rendering="crispEdges"/>
</g>
<g filter="url(#filter1_i_4270_629)">
<rect x="18.9375" y="16.0469" width="23.8915" height="4.92318" rx="1.5" fill="white"/>
</g>
<rect x="19.1875" y="16.2969" width="23.3915" height="4.42318" rx="1.25" stroke="#52C58B" stroke-width="0.5"/>
<rect x="19.1875" y="22.4531" width="6.71721" height="1.96159" rx="0.980794" fill="white" stroke="#52C58B" stroke-width="0.5"/>
<rect x="19.1875" y="26.1445" width="6.71721" height="1.96159" rx="0.980794" fill="white" stroke="#52C58B" stroke-width="0.5"/>
<rect x="19.1875" y="29.3438" width="6.71721" height="1.96159" rx="0.980794" fill="white" stroke="#52C58B" stroke-width="0.5"/>
<rect x="27.6445" y="22.4531" width="6.46834" height="1.96159" rx="0.980794" fill="white" stroke="#52C58B" stroke-width="0.5"/>
<rect x="27.6445" y="26.1445" width="6.46834" height="1.96159" rx="0.980794" fill="white" stroke="#52C58B" stroke-width="0.5"/>
<rect x="27.6445" y="29.3438" width="6.46834" height="1.96159" rx="0.980794" fill="white" stroke="#52C58B" stroke-width="0.5"/>
<rect x="35.8555" y="22.4531" width="6.71721" height="1.96159" rx="0.980794" fill="white" stroke="#52C58B" stroke-width="0.5"/>
<rect x="35.8555" y="26.1445" width="6.71721" height="1.96159" rx="0.980794" fill="white" stroke="#52C58B" stroke-width="0.5"/>
<rect x="35.8555" y="29.3438" width="6.71721" height="1.96159" rx="0.980794" fill="white" stroke="#52C58B" stroke-width="0.5"/>
<path d="M13.207 43.3743L23.4744 32.3047C24.7466 30.9331 26.7997 30.6265 28.4171 31.5666L35.0476 35.4205C36.6219 36.3355 38.6156 36.0718 39.8978 34.7789L50.5374 24.0508" stroke="#52C58B" stroke-width="0.5"/>
<ellipse cx="25.6539" cy="30.5709" rx="2.23982" ry="2.21543" fill="#FBBD9C"/>
<ellipse cx="37.0992" cy="36.2311" rx="2.23982" ry="2.21543" fill="#D9B5F9"/>
<ellipse cx="49.5445" cy="25.1568" rx="2.23982" ry="2.21543" fill="#9DD3FF"/>
<ellipse cx="13.9547" cy="41.8951" rx="2.23982" ry="2.21543" fill="#FFB0A9"/>
<path d="M17.4375 37.092V15.6992C17.4375 14.8708 18.1091 14.1992 18.9375 14.1992H42.5665C43.395 14.1992 44.0665 14.8708 44.0665 15.6992V28.9688" stroke="#52C58B" stroke-width="0.5"/>
<defs>
<filter id="filter0_d_4270_629" x="0.1" y="0.1" width="73.8" height="65.6203" filterUnits="userSpaceOnUse" color-interpolation-filters="sRGB">
<feFlood flood-opacity="0" result="BackgroundImageFix"/>
<feColorMatrix in="SourceAlpha" type="matrix" values="0 0 0 0 0 0 0 0 0 0 0 0 0 0 0 0 0 0 127 0" result="hardAlpha"/>
<feMorphology radius="1" operator="erode" in="SourceAlpha" result="effect1_dropShadow_4270_629"/>
<feOffset dx="4" dy="5"/>
<feGaussianBlur stdDeviation="4.45"/>
<feComposite in2="hardAlpha" operator="out"/>
<feColorMatrix type="matrix" values="0 0 0 0 0 0 0 0 0 0 0 0 0 0 0 0 0 0 0.25 0"/>
<feBlend mode="normal" in2="BackgroundImageFix" result="effect1_dropShadow_4270_629"/>
<feBlend mode="normal" in="SourceGraphic" in2="effect1_dropShadow_4270_629" result="shape"/>
</filter>
<filter id="filter1_i_4270_629" x="17.9375" y="16.0469" width="24.8906" height="5.92188" filterUnits="userSpaceOnUse" color-interpolation-filters="sRGB">
<feFlood flood-opacity="0" result="BackgroundImageFix"/>
<feBlend mode="normal" in="SourceGraphic" in2="BackgroundImageFix" result="shape"/>
<feColorMatrix in="SourceAlpha" type="matrix" values="0 0 0 0 0 0 0 0 0 0 0 0 0 0 0 0 0 0 127 0" result="hardAlpha"/>
<feOffset dx="-1" dy="1"/>
<feGaussianBlur stdDeviation="0.75"/>
<feComposite in2="hardAlpha" operator="arithmetic" k2="-1" k3="1"/>
<feColorMatrix type="matrix" values="0 0 0 0 0 0 0 0 0 0 0 0 0 0 0 0 0 0 0.25 0"/>
<feBlend mode="normal" in2="shape" result="effect1_innerShadow_4270_629"/>
</filter>
</defs>
</svg>
